<svg width="204" height="287" viewBox="0 0 204 287" fill="none" xmlns="http://www.w3.org/2000/svg">
<path d="M159.216 10.606H142.372L159.892 29.6281V38.6747H123.797V28.0802H141.317L123.797 9.05812V0H159.227L159.216 10.606ZM116.631 10.606H99.7647L117.308 29.6281V38.6747H81.2013V28.0802H98.7213L81.2013 9.05812V0H116.631V10.606ZM74.4592 11.0417H56.2857V27.6445H74.4592V38.6862H43.3521V0H74.4592V11.0417Z" fill="white"/>
<path d="M18.572 263.615L0.0888672 56.3447H203.151L184.645 263.581L101.494 286.627L18.572 263.615Z" fill="white"/>
<path d="M101.609 269.012L168.8 250.38L184.6 73.2881H101.609V269.012Z" fill="white"/>
<path d="M101.609 148.377H135.25L137.566 122.35H101.609V96.9409H165.36L164.752 103.763L158.503 173.82H101.609V148.377Z" fill="white"/>
<path d="M101.766 214.405H101.651L73.3417 206.758L71.5301 186.486H46.0298L49.5957 226.399L101.674 240.892H101.823V214.405H101.766Z" fill="white"/>
<path d="M133.113 172.711L130.052 206.731L101.696 214.379V240.865L153.809 226.418L154.188 222.118L158.613 172.7H133.113V172.711Z" fill="white"/>
<path d="M101.717 96.9409V122.361H40.3279L39.8004 116.651L38.6424 103.763L38.0347 96.9409H101.717ZM101.625 148.377V173.797H73.6365L73.1435 168.087L71.9854 155.2L71.3777 148.377H101.614H101.625Z" fill="white"/>
</svg>
