<svg width="189" height="265" viewBox="0 0 189 265" fill="none" xmlns="http://www.w3.org/2000/svg">
<path d="M19.1772 0.800781H30.8894V11.1737H41.685V0.800781H53.3972V32.1924H41.685V21.7285H30.9913V32.1924H19.1772V0.800781ZM68.8776 11.2647H58.5404V0.800781H90.978V11.2647H80.5898V32.1924H68.8776V11.2647ZM96.1212 0.800781H108.394L115.93 11.8561L123.467 0.800781H135.739V32.1924H124.027V16.6331L115.828 27.9159L107.63 16.6331V32.1924H96.1212V0.800781ZM141.544 0.800781H153.256V21.8195H169.857V32.1924H141.544" fill="white"/>
<path d="M17.4744 243.217L0.342285 51.0273H188.692L171.56 243.113L94.3614 264.49" fill="white"/>
<path d="M94.5171 245.655V63.584H169.857L155.48 228.204" fill="white"/>
<path d="M38.0122 88.6973H94.5171V113.069H62.6959L64.7777 138.031H94.5171V162.349H44.1584L38.0122 88.6973ZM45.1497 174.588H67.7516L69.3377 194.075L94.5171 201.375V226.82L48.3219 212.863" fill="white"/>
<path d="M151.022 88.6973H94.5171V113.088H148.937L151.022 88.6973ZM146.901 138.069H94.5171V162.46H122.323L119.691 194.157L94.5171 201.463V226.82L140.694 212.96" fill="white"/>
</svg>
